# xmcd
#
# Track frame offsets:
#  150
#  31472
#  48860
#  70120
#  88847
#  112185
#  124640
#  150227
#  172387
#  194597
#  211260
#  232295
#  249142
#  268230
#  290100
#
# Disc length: 4018 seconds
#
# Revision: 1
# Processed by: cddbd v1.5.2PL0 Copyright (c) Steve Scherf et al.
# Submitted via: Collectorz.com_Music_Collector 6.11
#
DISCID=e40fb00f
DTITLE=Nina Simone - House Of The Rising Sun
DYEAR=1900
DGENRE=Jazz
TTITLE0=The House Of The Rising Sun
TTITLE1=Don't Let Me Be Misunderstood
TTITLE2=Ain't Got No I Got Life
TTITLE3=No Oppurtunity Necessary, No Experience Needed
TTITLE4=Young, Gifted And Black
TTITLE5=Ain't No Use
TTITLE6=After You've Gone
TTITLE7=The Assignment Song
TTITLE8=Gin House Blues
TTITLE9=Do What You Gotta Do
TTITLE10=Mississippi Goddam
TTITLE11=See Line Woman
TTITLE12=The Other Woman
TTITLE13=Four Women
TTITLE14=I Sing Just To Know I'm Alive
EXTD=
EXTT0=
EXTT1=
EXTT2=
EXTT3=
EXTT4=
EXTT5=
EXTT6=
EXTT7=
EXTT8=
EXTT9=
EXTT10=
EXTT11=
EXTT12=
EXTT13=
EXTT14=
PLAYORDER=
